<svg xmlns="http://www.w3.org/2000/svg" xmlns:xlink="http://www.w3.org/1999/xlink" width="512" zoomAndPan="magnify" viewBox="0 0 384 383.999986" height="512" preserveAspectRatio="xMidYMid meet" version="1.0"><defs><clipPath id="212919d502"><path d="M 23.269531 38 L 344 38 L 344 361 L 23.269531 361 Z M 23.269531 38 " clip-rule="nonzero"/></clipPath><clipPath id="465feeda6d"><path d="M 108.101562 233.3125 L 112.363281 233.3125 L 112.363281 236.996094 L 108.101562 236.996094 Z M 108.101562 233.3125 " clip-rule="nonzero"/></clipPath><clipPath id="c83c24e053"><path d="M 112.351562 234.601562 C 110.476562 237.675781 108.675781 237.074219 108.300781 236.476562 C 107.925781 235.800781 108.226562 234 108.824219 233.550781 C 109.425781 233.023438 111.824219 233.699219 111.824219 233.699219 " clip-rule="nonzero"/></clipPath><clipPath id="fb6b001f4a"><path d="M 0.101562 0.3125 L 4.363281 0.3125 L 4.363281 3.996094 L 0.101562 3.996094 Z M 0.101562 0.3125 " clip-rule="nonzero"/></clipPath><clipPath id="0b259aa4ed"><path d="M 4.351562 1.601562 C 2.476562 4.675781 0.675781 4.074219 0.300781 3.476562 C -0.0742188 2.800781 0.226562 1 0.824219 0.550781 C 1.425781 0.0234375 3.824219 0.699219 3.824219 0.699219 " clip-rule="nonzero"/></clipPath><clipPath id="6a5a2e0916"><rect x="0" width="5" y="0" height="4"/></clipPath></defs><g clip-path="url(#212919d502)"><path fill="#00adef" d="M 23.261719 167.355469 C 30.882812 143.132812 44.710938 120.5 64.660156 101.984375 C 125.941406 45.105469 221.761719 48.648438 278.671875 109.894531 C 335.582031 171.140625 332.039062 266.898438 270.753906 323.773438 C 250.804688 342.289062 227.195312 354.398438 202.464844 360.203125 C 234.679688 356.035156 265.953125 342.152344 291.570312 318.375 C 356.984375 257.664062 360.769531 155.457031 300.019531 90.082031 C 239.269531 24.707031 137 20.925781 71.585938 81.636719 C 45.964844 105.410156 29.800781 135.554688 23.261719 167.355469 " fill-opacity="1" fill-rule="nonzero"/></g><path fill="#3871c1" d="M 218.410156 307.683594 C 175.582031 333.792969 119.328125 332.410156 77.230469 299.96875 C 52.953125 281.257812 37.480469 255.367188 31.484375 227.597656 C 35.394531 263.53125 53.375 297.878906 84.277344 321.691406 C 137.796875 362.9375 212.042969 358.691406 260.488281 314.976562 C 249.152344 313.882812 237.4375 312.003906 225.570312 309.367188 C 223.183594 308.835938 220.800781 308.269531 218.410156 307.683594 " fill-opacity="1" fill-rule="nonzero"/><path fill="#3871c1" d="M 119.992188 216.609375 C 132.15625 221.363281 138.167969 235.074219 133.410156 247.234375 C 128.65625 259.394531 114.9375 265.394531 102.769531 260.640625 C 90.601562 255.890625 84.59375 242.183594 89.351562 230.023438 C 94.101562 217.859375 107.824219 211.855469 119.992188 216.609375 Z M 50.3125 147.25 C 41.769531 169.082031 52.410156 195.984375 76.449219 221.640625 C 76 222.566406 75.578125 223.519531 75.199219 224.496094 C 67.390625 244.460938 77.257812 266.980469 97.238281 274.785156 C 111.339844 280.292969 126.710938 277.003906 137.285156 267.566406 C 149.9375 274.585938 163.625 281.042969 178.148438 286.714844 C 194.773438 293.207031 211.296875 298.210938 227.261719 301.753906 C 241.335938 304.882812 254.988281 306.878906 267.902344 307.765625 C 271.210938 304.304688 274.367188 300.628906 277.359375 296.753906 C 281.542969 291.332031 285.257812 285.699219 288.507812 279.902344 C 303.441406 253.300781 308.65625 223.242188 304.769531 194.394531 C 299.5 201.839844 291.246094 207.503906 280.53125 210.941406 C 279.613281 211.234375 278.675781 211.511719 277.726562 211.773438 C 275.785156 234.851562 267.40625 257.660156 252.203125 277.363281 C 251.433594 278.363281 250.652344 279.34375 249.855469 280.304688 C 225.78125 278.1875 199.113281 271.957031 172.140625 261.417969 C 163.855469 258.183594 155.875 254.664062 148.230469 250.921875 C 154.757812 231.425781 144.894531 210.035156 125.519531 202.46875 C 111.761719 197.09375 96.792969 200.097656 86.257812 209.003906 C 62.132812 186.074219 49.5 161.453125 53.519531 140.761719 C 52.269531 142.828125 51.195312 144.984375 50.3125 147.25 " fill-opacity="1" fill-rule="nonzero"/><path fill="#3871c1" d="M 127.664062 168.265625 C 119.851562 164.648438 116.449219 155.390625 120.066406 147.578125 C 123.683594 139.773438 132.949219 136.375 140.765625 139.988281 C 148.578125 143.605469 151.980469 152.863281 148.359375 160.675781 C 144.742188 168.480469 135.476562 171.878906 127.664062 168.265625 Z M 173.265625 171.5625 C 167.949219 169.101562 162.835938 166.464844 157.960938 163.695312 C 163.035156 151.132812 157.410156 136.664062 144.972656 130.910156 C 136.136719 126.820312 126.171875 128.195312 118.878906 133.632812 C 103.933594 117.578125 96.613281 100.875 100.089844 87.425781 C 99.183594 88.734375 98.390625 90.109375 97.71875 91.566406 C 91.222656 105.585938 97.140625 123.710938 111.921875 141.550781 C 111.585938 142.144531 111.273438 142.75 110.984375 143.375 C 105.042969 156.199219 110.625 171.40625 123.457031 177.347656 C 132.515625 181.535156 142.757812 179.984375 150.089844 174.207031 C 158.132812 179.332031 166.875 184.128906 176.199219 188.441406 C 215.050781 206.421875 253.769531 211.335938 278.148438 203.515625 C 288.972656 200.042969 296.96875 194.054688 300.894531 185.585938 C 301.511719 184.261719 302.015625 182.894531 302.410156 181.496094 C 298.890625 166.375 292.816406 151.796875 284.269531 138.476562 C 284.265625 138.464844 284.261719 138.464844 284.257812 138.457031 C 275.941406 125.5 265.296875 113.730469 252.402344 103.792969 C 221.503906 79.976562 183.691406 71.332031 147.921875 76.683594 C 176.324219 75.421875 205.308594 83.796875 229.589844 102.503906 C 255.550781 122.507812 271.449219 150.726562 276.453125 180.683594 C 256.054688 193.636719 214.746094 190.753906 173.265625 171.5625 " fill-opacity="1" fill-rule="nonzero"/><g clip-path="url(#465feeda6d)"><g clip-path="url(#c83c24e053)"><g transform="matrix(1, 0, 0, 1, 108, 233)"><g clip-path="url(#6a5a2e0916)"><g clip-path="url(#fb6b001f4a)"><g clip-path="url(#0b259aa4ed)"><rect x="-192.48" width="552.96" fill="#ffffff" height="552.959979" y="-317.479997" fill-opacity="1"/></g></g></g></g></g></g></svg>